<svg class="charter" xmlns="http://www.w3.org/2000/svg" version="1.1" width="100%" viewbox="0 0 850 500">
<defs><clipPath id="plot-area"><rect x="70.00" y="25.00" width="745.00" height="425.00"/>
</clipPath></defs><text  x="442.50" y="15.00" text-anchor="middle"  font-weight="bold">plot1.txt</text>
<line clip-path="url(#plot-area)"  x1="103.86" y1="25.00" x2="103.86" y2="450.00"  style="stroke: #ccc;stroke-width:0.50"/>
<line clip-path="url(#plot-area)"  x1="297.37" y1="25.00" x2="297.37" y2="450.00"  style="stroke: #ccc;stroke-width:0.50"/>
<line clip-path="url(#plot-area)"  x1="490.88" y1="25.00" x2="490.88" y2="450.00"  style="stroke: #ccc;stroke-width:0.50"/>
<line clip-path="url(#plot-area)"  x1="684.38" y1="25.00" x2="684.38" y2="450.00"  style="stroke: #ccc;stroke-width:0.50"/>
<line clip-path="url(#plot-area)"  x1="70.00" y1="430.68" x2="815.00" y2="430.68"  style="stroke: #ccc;stroke-width:0.50"/>
<line clip-path="url(#plot-area)"  x1="70.00" y1="355.22" x2="815.00" y2="355.22"  style="stroke: #ccc;stroke-width:0.50"/>
<line clip-path="url(#plot-area)"  x1="70.00" y1="279.76" x2="815.00" y2="279.76"  style="stroke: #ccc;stroke-width:0.50"/>
<line clip-path="url(#plot-area)"  x1="70.00" y1="204.30" x2="815.00" y2="204.30"  style="stroke: #ccc;stroke-width:0.50"/>
<line clip-path="url(#plot-area)"  x1="70.00" y1="128.84" x2="815.00" y2="128.84"  style="stroke: #ccc;stroke-width:0.50"/>
<line clip-path="url(#plot-area)"  x1="70.00" y1="53.37" x2="815.00" y2="53.37"  style="stroke: #ccc;stroke-width:0.50"/>
<polyline clip-path="url(#plot-area)" style="fill:none; stroke:#252FBB; stroke-width:2.00;"  points="103.86,430.68 200.62,430.68 297.37,430.68 394.12,430.68 490.88,430.68 587.63,430.68 684.38,430.68 781.14,430.68 103.86,430.68 -19246.79,429.93 -9571.46,429.17 103.86,428.42 9779.19,427.66 19454.51,426.91 29129.84,426.15 38805.16,425.40 48480.49,430.68 103.86,424.64 56376.05,418.61 49074.89,406.53 41773.73,382.39 34472.57,334.09 27171.41,237.50 19870.25,44.32 12569.09,430.68 5267.93,430.68 " /><circle clip-path="url(#plot-area)"  cx="103.86" cy="430.68" r="3.00" fill="#252FBB" /><circle clip-path="url(#plot-area)"  cx="200.62" cy="430.68" r="3.00" fill="#252FBB" /><circle clip-path="url(#plot-area)"  cx="297.37" cy="430.68" r="3.00" fill="#252FBB" /><circle clip-path="url(#plot-area)"  cx="394.12" cy="430.68" r="3.00" fill="#252FBB" /><circle clip-path="url(#plot-area)"  cx="490.88" cy="430.68" r="3.00" fill="#252FBB" /><circle clip-path="url(#plot-area)"  cx="587.63" cy="430.68" r="3.00" fill="#252FBB" /><circle clip-path="url(#plot-area)"  cx="684.38" cy="430.68" r="3.00" fill="#252FBB" /><circle clip-path="url(#plot-area)"  cx="781.14" cy="430.68" r="3.00" fill="#252FBB" /><circle clip-path="url(#plot-area)"  cx="103.86" cy="430.68" r="3.00" fill="#252FBB" /><circle clip-path="url(#plot-area)"  cx="-19246.79" cy="429.93" r="3.00" fill="#252FBB" /><circle clip-path="url(#plot-area)"  cx="-9571.46" cy="429.17" r="3.00" fill="#252FBB" /><circle clip-path="url(#plot-area)"  cx="103.86" cy="428.42" r="3.00" fill="#252FBB" /><circle clip-path="url(#plot-area)"  cx="9779.19" cy="427.66" r="3.00" fill="#252FBB" /><circle clip-path="url(#plot-area)"  cx="19454.51" cy="426.91" r="3.00" fill="#252FBB" /><circle clip-path="url(#plot-area)"  cx="29129.84" cy="426.15" r="3.00" fill="#252FBB" /><circle clip-path="url(#plot-area)"  cx="38805.16" cy="425.40" r="3.00" fill="#252FBB" /><circle clip-path="url(#plot-area)"  cx="48480.49" cy="430.68" r="3.00" fill="#252FBB" /><circle clip-path="url(#plot-area)"  cx="103.86" cy="424.64" r="3.00" fill="#252FBB" /><circle clip-path="url(#plot-area)"  cx="56376.05" cy="418.61" r="3.00" fill="#252FBB" /><circle clip-path="url(#plot-area)"  cx="49074.89" cy="406.53" r="3.00" fill="#252FBB" /><circle clip-path="url(#plot-area)"  cx="41773.73" cy="382.39" r="3.00" fill="#252FBB" /><circle clip-path="url(#plot-area)"  cx="34472.57" cy="334.09" r="3.00" fill="#252FBB" /><circle clip-path="url(#plot-area)"  cx="27171.41" cy="237.50" r="3.00" fill="#252FBB" /><circle clip-path="url(#plot-area)"  cx="19870.25" cy="44.32" r="3.00" fill="#252FBB" /><circle clip-path="url(#plot-area)"  cx="12569.09" cy="430.68" r="3.00" fill="#252FBB" /><circle clip-path="url(#plot-area)"  cx="5267.93" cy="430.68" r="3.00" fill="#252FBB" /><rect  x="70.00" y="25.00" width="745.00" height="425.00" style="fill:none; fill-opacity:1.00; stroke:black; stroke-width:0.50;" />
<text  x="442.50" y="487.00" text-anchor="middle"  font-weight="regular">Index</text>
<text  transform="rotate(270,5.00,237.50) translate(0, 10)"  x="5.00" y="237.50" text-anchor="middle"  font-weight="regular">x-axis:</text>
<line  x1="103.86" y1="451.00" x2="103.86" y2="456.00"  style="stroke: black;stroke-width:1.00"/>
<text  x="103.86" y="470.00" text-anchor="middle"  font-weight="regular">0</text>
<line  x1="297.37" y1="451.00" x2="297.37" y2="456.00"  style="stroke: black;stroke-width:1.00"/>
<text  x="297.37" y="470.00" text-anchor="middle"  font-weight="regular">2.0</text>
<line  x1="490.88" y1="451.00" x2="490.88" y2="456.00"  style="stroke: black;stroke-width:1.00"/>
<text  x="490.88" y="470.00" text-anchor="middle"  font-weight="regular">4.0</text>
<line  x1="684.38" y1="451.00" x2="684.38" y2="456.00"  style="stroke: black;stroke-width:1.00"/>
<text  x="684.38" y="470.00" text-anchor="middle"  font-weight="regular">6.0</text>
<line  x1="64.00" y1="430.68" x2="69.00" y2="430.68"  style="stroke: black;stroke-width:1.00"/>
<text  x="60.00" y="434.68" text-anchor="end"  font-weight="regular">0</text>
<line  x1="64.00" y1="355.22" x2="69.00" y2="355.22"  style="stroke: black;stroke-width:1.00"/>
<text  x="60.00" y="359.22" text-anchor="end"  font-weight="regular"><tspan>1.0e<tspan  font-size="10" dy="-5" dx="1">2</tspan></tspan></text>
<line  x1="64.00" y1="279.76" x2="69.00" y2="279.76"  style="stroke: black;stroke-width:1.00"/>
<text  x="60.00" y="283.76" text-anchor="end"  font-weight="regular"><tspan>2.0e<tspan  font-size="10" dy="-5" dx="1">2</tspan></tspan></text>
<line  x1="64.00" y1="204.30" x2="69.00" y2="204.30"  style="stroke: black;stroke-width:1.00"/>
<text  x="60.00" y="208.30" text-anchor="end"  font-weight="regular"><tspan>3.0e<tspan  font-size="10" dy="-5" dx="1">2</tspan></tspan></text>
<line  x1="64.00" y1="128.84" x2="69.00" y2="128.84"  style="stroke: black;stroke-width:1.00"/>
<text  x="60.00" y="132.84" text-anchor="end"  font-weight="regular"><tspan>4.0e<tspan  font-size="10" dy="-5" dx="1">2</tspan></tspan></text>
<line  x1="64.00" y1="53.37" x2="69.00" y2="53.37"  style="stroke: black;stroke-width:1.00"/>
<text  x="60.00" y="57.37" text-anchor="end"  font-weight="regular"><tspan>5.0e<tspan  font-size="10" dy="-5" dx="1">2</tspan></tspan></text>
</svg>
